HIERARCHY
ROOT Hips
{
 OFFSET 0.000000 0.000000 0.000000
 CHANNELS 6 Xposition Yposition Zposition Yrotation Xrotation Zrotation
 JOINT Chest
 {
  OFFSET 0.000000 9.588913 -0.003946
  CHANNELS 3 Yrotation Xrotation Zrotation
  JOINT Chest2
  {
   OFFSET 0.000000 9.541882 0.008053
   CHANNELS 3 Yrotation Xrotation Zrotation
   JOINT Chest3
   {
    OFFSET 0.000000 9.501360 0.000000
    CHANNELS 3 Yrotation Xrotation Zrotation
    JOINT Chest4
    {
     OFFSET 0.000000 9.491660 0.000000
     CHANNELS 3 Yrotation Xrotation Zrotation
     JOINT Neck
     {
      OFFSET 0.000000 14.331917 0.000000
      CHANNELS 3 Yrotation Xrotation Zrotation
      JOINT Head
      {
       OFFSET 0.000000 8.884799 0.017034
       CHANNELS 3 Yrotation Xrotation Zrotation
       End Site
       {
        OFFSET 0.000000 16.896195 0.008993
       }
      }
     }
     JOINT RightCollar
     {
      OFFSET -2.923010 9.499495 0.000000
      CHANNELS 3 Yrotation Xrotation Zrotation
      JOINT RightShoulder
      {
       OFFSET -13.795216 0.000000 0.000000
       CHANNELS 3 Yrotation Xrotation Zrotation
       JOINT RightElbow
       {
        OFFSET -30.272209 0.000000 0.000000
        CHANNELS 3 Yrotation Xrotation Zrotation
        JOINT RightWrist
        {
         OFFSET -24.478199 0.000000 0.000000
         CHANNELS 3 Yrotation Xrotation Zrotation
         End Site
         {
          OFFSET -18.090752 0.000000 0.000000
         }
        }
       }
      }
     }
     JOINT LeftCollar
     {
      OFFSET 2.923010 9.499495 0.000000
      CHANNELS 3 Yrotation Xrotation Zrotation
      JOINT LeftShoulder
      {
       OFFSET 13.795216 0.000000 0.000000
       CHANNELS 3 Yrotation Xrotation Zrotation
       JOINT LeftElbow
       {
        OFFSET 30.272209 0.000000 0.000000
        CHANNELS 3 Yrotation Xrotation Zrotation
        JOINT LeftWrist
        {
         OFFSET 24.478199 0.000000 0.000000
         CHANNELS 3 Yrotation Xrotation Zrotation
         End Site
         {
          OFFSET 18.090752 0.000000 0.000000
         }
        }
       }
      }
     }
    }
   }
  }
 }
 JOINT RightHip
 {
  OFFSET -7.826875 0.019532 0.001973
  CHANNELS 3 Yrotation Xrotation Zrotation
  JOINT RightKnee
  {
   OFFSET 0.000000 -40.546152 -0.001885
   CHANNELS 3 Yrotation Xrotation Zrotation
   JOINT RightAnkle
   {
    OFFSET 0.000000 -39.417092 -0.003189
    CHANNELS 3 Yrotation Xrotation Zrotation
    JOINT RightToe
    {
     OFFSET 0.000000 -7.579396 17.243563
     CHANNELS 3 Yrotation Xrotation Zrotation
     End Site
     {
      OFFSET 0.000000 -1.500329 6.694466
     }
    }
   }
  }
 }
 JOINT LeftHip
 {
  OFFSET 7.826875 0.019532 0.001973
  CHANNELS 3 Yrotation Xrotation Zrotation
  JOINT LeftKnee
  {
   OFFSET 0.000000 -40.546152 -0.001885
   CHANNELS 3 Yrotation Xrotation Zrotation
   JOINT LeftAnkle
   {
    OFFSET 0.000000 -39.417092 -0.003189
    CHANNELS 3 Yrotation Xrotation Zrotation
    JOINT LeftToe
    {
     OFFSET 0.000000 -7.579396 17.243563
     CHANNELS 3 Yrotation Xrotation Zrotation
     End Site
     {
      OFFSET 0.000000 -1.500329 6.694466
     }
    }
   }
  }
 }
}
MOTION
Frames: 12
Frame Time: 0.008333
16.353832 29.758163 24.530451 -44.404906 -30.849747 4.853639 20.806961 12.722165 9.786990 11.329103 7.953392 5.278747 14.306321 9.763496 6.854426 11.329103 7.953392 5.278747 5.208663 15.645594 -7.918837 7.668738 -8.814810 -10.040380 12.947816 -2.833023 -8.220696 -10.299879 -24.616050 82.855817 97.687058 0.033470 16.028287 21.595942 -1.162069 -14.686896 11.217152 3.547731 0.651434 -9.863836 -14.076292 -89.332975 -106.281523 -19.573291 -32.268363 -42.201694 26.935858 26.290744 20.958998 -14.085828 1.174016 -156.514006 29.874099 173.074474 19.069552 -13.500576 15.623137 -149.056281 -82.324266 152.778420 64.488592 -41.516927 36.007368 143.076158 26.623510 -153.644491 1.667955 -15.471022 -2.277940 8.973152 -57.842150 -32.023217
16.353055 29.811959 24.532532 -44.428839 -30.853416 4.859088 20.823185 12.721363 9.787690 11.331719 7.953706 5.280187 14.309634 9.763799 6.856293 11.331719 7.953706 5.280187 5.198469 15.647103 -7.912213 7.655080 -8.814293 -10.029578 12.956818 -2.833406 -8.215657 -10.310685 -24.610514 82.859040 97.696735 0.041493 16.008828 21.589517 -1.177544 -14.677358 11.225297 3.550319 0.653870 -9.892895 -14.081749 -89.345691 -106.280265 -19.570225 -32.259545 -42.197135 26.937157 26.289519 20.982755 -14.079509 1.186703 -156.521557 29.870092 173.078801 19.045960 -13.510466 15.619269 -148.942982 -82.328126 152.680094 64.508164 -41.520653 36.016560 143.068914 26.632062 -153.648022 1.662474 -15.464701 -2.289880 8.378280 -57.324696 -31.523758
16.352007 29.862788 24.534337 -44.450479 -30.856455 4.861765 20.834968 12.720599 9.789566 11.334495 7.954464 5.281157 14.313147 9.764669 6.857591 11.334495 7.954464 5.281157 5.190024 15.647282 -7.905234 7.643359 -8.815170 -10.018891 12.961460 -2.835927 -8.211094 -10.310239 -24.603433 82.856708 97.705909 0.045658 15.990937 21.584243 -1.189031 -14.669874 11.236978 3.553578 0.655572 -9.922474 -14.091440 -89.357468 -106.280512 -19.564275 -32.247690 -42.192253 26.936720 26.288883 21.000677 -14.075283 1.201462 -156.527401 29.866836 173.080071 19.025461 -13.517567 15.618750 -148.851370 -82.329983 152.599733 64.524613 -41.523635 36.026407 143.052914 26.643038 -153.655376 1.648047 -15.460070 -2.307792 7.808339 -56.811368 -31.047468
16.350833 29.910329 24.535536 -44.465692 -30.857174 4.859022 20.840393 12.717700 9.792582 11.337787 7.955193 5.281958 14.317303 9.765498 6.858686 11.337787 7.955193 5.281958 5.182502 15.647047 -7.898384 7.632747 -8.816435 -10.008635 12.959934 -2.838662 -8.207418 -10.300716 -24.598338 82.850471 97.710485 0.045678 15.975794 21.583177 -1.195538 -14.666229 11.248967 3.556124 0.655982 -9.949822 -14.102191 -89.369017 -106.282003 -19.556724 -32.238497 -42.187415 26.935962 26.287976 21.009657 -14.075389 1.216680 -156.525985 29.865058 173.081567 19.014236 -13.522542 15.619784 -148.783446 -82.330841 152.538880 64.533576 -41.527730 36.035175 143.036351 26.651764 -153.664802 1.630613 -15.456356 -2.325904 7.266472 -56.309459 -30.596707
16.349525 29.955120 24.537145 -44.477207 -30.861030 4.856538 20.843516 12.718164 9.795684 11.341569 7.955858 5.283086 14.322078 9.766229 6.860200 11.341569 7.955858 5.283086 5.174692 15.647532 -7.892077 7.621948 -8.816878 -9.998923 12.954686 -2.839122 -8.205033 -10.295229 -24.599634 82.843870 97.707703 0.043180 15.964592 21.590268 -1.198656 -14.661711 11.257176 3.556113 0.654964 -9.972199 -14.113036 -89.380032 -106.281157 -19.550428 -32.235620 -42.178971 26.935933 26.290539 21.015293 -14.073454 1.229205 -156.520790 29.863260 173.086476 19.006196 -13.522896 15.618246 -148.713271 -82.328575 152.478666 64.534461 -41.526344 36.048116 143.025528 26.659700 -153.676143 1.617965 -15.451396 -2.339638 6.748881 -55.818887 -30.171908
16.347931 29.997672 24.539869 -44.488691 -30.872348 4.858357 20.848023 12.726509 9.799646 11.344904 7.957086 5.284489 14.326313 9.767662 6.862067 11.344904 7.957086 5.284489 5.166934 15.648812 -7.886649 7.611448 -8.816365 -9.990250 12.949001 -2.837588 -8.204872 -10.296788 -24.607903 82.838508 97.698637 0.037638 15.957127 21.601836 -1.200472 -14.652119 11.263523 3.554911 0.652193 -9.991193 -14.125754 -89.389821 -106.276345 -19.546689 -32.235854 -42.170667 26.935425 26.294094 21.022499 -14.063072 1.238735 -156.515588 29.861370 173.093416 18.999420 -13.519301 15.615237 -148.646862 -82.322762 152.424755 64.529177 -41.516014 36.068842 143.021760 26.668786 -153.686373 1.609967 -15.443448 -2.351568 2.162750 -49.264534 -24.945250
16.346168 30.037797 24.543124 -44.499312 -30.887695 4.861772 20.853685 12.739488 9.805533 11.347574 7.959004 5.285783 14.329727 9.769970 6.863809 11.347574 7.959004 5.285783 5.158752 15.650275 -7.882131 7.600721 -8.815605 -9.982526 12.942008 -2.836420 -8.207803 -10.296889 -24.619919 82.833756 97.685537 0.028778 15.947114 21.617304 -1.202162 -14.638274 11.267669 3.554391 0.648241 -10.005836 -14.139386 -89.398113 -106.270663 -19.545299 -32.235847 -42.168791 26.934579 26.289473 21.030433 -14.048045 1.247266 -156.511300 29.861026 173.097704 18.999713 -13.512632 15.615394 -148.622530 -82.314321 152.407244 64.518531 -41.502687 36.092879 143.023953 26.677158 -153.691880 1.600719 -15.430028 -2.367521 -4.127157 -32.015103 -16.343220
16.344568 30.075127 24.546089 -44.506208 -30.901420 4.862775 20.857106 12.750468 9.811203 11.350028 7.960851 5.286927 14.332867 9.772197 6.865358 11.350028 7.960851 5.286927 5.150627 15.652111 -7.877880 7.590131 -8.814406 -9.975127 12.932879 -2.836021 -8.210642 -10.290859 -24.632070 82.827255 97.670063 0.019569 15.931597 21.638769 -1.206205 -14.625015 11.268746 3.554355 0.645430 -10.013678 -14.149558 -89.404905 -106.268938 -19.545147 -32.235562 -42.169995 26.934865 26.277115 21.036724 -14.034529 1.254719 -156.506219 29.862072 173.099283 19.008993 -13.506047 15.618666 -148.634552 -82.305132 152.419035 64.504464 -41.492806 36.114961 143.029273 26.682200 -153.694676 1.590899 -15.415810 -2.384561 -6.464960 -14.693515 -10.473329
16.342856 30.109821 24.548583 -44.511522 -30.913626 4.859885 20.857494 12.758478 9.816184 11.351915 7.962183 5.287961 14.335284 9.773795 6.866739 11.351915 7.962183 5.287961 5.145108 15.654594 -7.873589 7.582516 -8.812329 -9.968425 12.926642 -2.835216 -8.212403 -10.284908 -24.643156 82.822526 97.655559 0.015767 15.915022 21.660112 -1.215470 -14.613056 11.272685 3.554865 0.644277 -10.017142 -14.154165 -89.409450 -106.272670 -19.544864 -32.235771 -42.168685 26.937858 26.264439 21.043855 -14.023371 1.264511 -156.500577 29.862244 173.102000 19.021221 -13.501451 15.621004 -148.651668 -82.296443 152.434771 64.489017 -41.487965 36.137180 143.035122 26.684850 -153.697937 1.584464 -15.403950 -2.397262 -6.237838 -5.393420 -7.186605
16.340577 30.142371 24.550975 -44.516143 -30.928221 4.852498 20.854922 12.767838 9.823626 11.353183 7.963568 5.288638 14.336918 9.775482 6.867662 11.353183 7.963568 5.288638 5.142229 15.656876 -7.869597 7.578026 -8.810285 -9.962844 12.925944 -2.836049 -8.214875 -10.283760 -24.652223 82.823764 97.644783 0.019002 15.900436 21.677615 -1.225625 -14.600777 11.281892 3.554437 0.643856 -10.021188 -14.156470 -89.411015 -106.279150 -19.543117 -32.233525 -42.165207 26.942804 26.254071 21.051375 -14.012123 1.280232 -156.497854 29.861700 173.106260 19.030636 -13.494951 15.621677 -148.669894 -82.287172 152.453448 64.471035 -41.488025 36.162811 143.038467 26.686903 -153.701372 1.579801 -15.391546 -2.407519 -5.289329 -1.447093 -5.186821
16.338025 30.172786 24.553215 -44.515860 -30.943920 4.838952 20.847905 12.777247 9.834234 11.354049 7.965244 5.289214 14.338053 9.777540 6.868461 11.354049 7.965244 5.289214 5.140422 15.658968 -7.866190 7.574938 -8.808339 -9.958268 12.929612 -2.839625 -8.217505 -10.284493 -24.656799 82.825822 97.639506 0.025412 15.886002 21.692821 -1.233187 -14.590332 11.292175 3.552486 0.642868 -10.027445 -14.160656 -89.407834 -106.287464 -19.541742 -32.225134 -42.159032 26.945217 26.244830 21.053980 -14.001519 1.300534 -156.496384 29.860996 173.112070 19.036615 -13.486587 15.621776 -148.681523 -82.277189 152.468232 64.450303 -41.494358 36.187875 143.038533 26.686265 -153.704202 1.577493 -15.379252 -2.418362 -4.287490 -0.033870 -3.897966
16.335623 30.200998 24.555219 -44.513275 -30.958292 4.821716 20.841111 12.783322 9.846031 11.355060 7.967093 5.290385 14.339387 9.779793 6.870013 11.355060 7.967093 5.290385 5.137671 15.660637 -7.862988 7.570832 -8.806908 -9.953667 12.933121 -2.844538 -8.218646 -10.285270 -24.658161 82.824070 97.639115 0.030783 15.871584 21.703324 -1.240420 -14.582625 11.299178 3.550076 0.641535 -10.035267 -14.167307 -89.399478 -106.298277 -19.544310 -32.213589 -42.148432 26.944758 26.236124 21.052982 -13.993358 1.323366 -156.491058 29.858865 173.119826 19.041872 -13.479067 15.622840 -148.678431 -82.266986 152.471306 64.430897 -41.505375 36.210014 143.036920 26.682964 -153.706349 1.578285 -15.368081 -2.429923 -3.418375 0.392202 -3.005388
